<svg xmlns="http://www.w3.org/2000/svg" version="1.1" viewBox="0.00 0.00 184.00 40.00" width="184.00" height="40.00">
<g stroke-width="2.00" fill="none" stroke-linecap="butt">
<path stroke="#284725" stroke-opacity="0.549" d="&#10;  M 53.64 10.76&#10;  Q 51.34 15.44 49.09 20.29&#10;  Q 48.00 22.64 48.02 24.62&#10;  Q 48.08 30.06 48.01 35.18&#10;  Q 48.00 35.68 47.51 35.79&#10;  Q 46.75 35.95 46.16 35.78"/>
<path stroke="#284724" stroke-opacity="0.569" d="&#10;  M 86.14 12.57&#10;  Q 86.23 19.68 86.15 26.52&#10;  C 86.11 30.12 85.59 33.25 82.20 35.01&#10;  C 79.39 36.48 72.80 35.79 69.14 35.80"/>
<path stroke="#284725" stroke-opacity="0.549" d="&#10;  M 117.76 23.35&#10;  L 103.91 23.35&#10;  Q 103.03 23.34 103.03 24.23&#10;  L 103.04 30.01&#10;  Q 103.05 30.87 103.90 30.85&#10;  L 107.03 30.79"/>
<path stroke="#284724" stroke-opacity="0.569" d="&#10;  M 117.84 35.26&#10;  Q 117.88 35.51 117.69 35.67&#10;  Q 117.56 35.77 117.32 35.77&#10;  Q 109.08 35.82 100.76 35.79"/>
<path stroke="#284725" stroke-opacity="0.549" d="&#10;  M 150.05 13.75&#10;  Q 150.21 23.33 140.93 23.53&#10;  A 0.19 0.19 0.0 0 0 140.78 23.84&#10;  L 144.38 28.25"/>
<path stroke="#284724" stroke-opacity="0.569" d="&#10;  M 150.52 35.94&#10;  Q 147.88 35.51 144.95 36.05"/>
<path stroke="#284724" stroke-opacity="0.569" d="&#10;  M 138.35 28.50&#10;  L 135.20 24.57&#10;  Q 134.78 24.06 134.78 24.72&#10;  L 134.77 35.22&#10;  Q 134.77 35.72 134.26 35.73&#10;  L 132.53 35.79"/>
<path stroke="#284724" stroke-opacity="0.569" d="&#10;  M 174.27 11.22&#10;  L 180.09 35.16&#10;  Q 180.21 35.66 179.71 35.76&#10;  Q 178.80 35.96 177.79 35.81"/>
<path stroke="#284724" stroke-opacity="0.569" d="&#10;  M 175.06 35.58&#10;  L 174.21 31.94&#10;  A 0.87 0.86 83.2 0 0 173.37 31.27&#10;  L 166.74 31.23&#10;  Q 166.15 31.23 166.05 31.82&#10;  Q 165.59 34.37 164.45 35.85"/>
<path stroke="#284725" stroke-opacity="0.549" d="&#10;  M 167.25 26.49&#10;  A 0.32 0.32 0.0 0 0 167.56 26.89&#10;  L 172.76 26.91&#10;  A 0.32 0.32 0.0 0 0 173.07 26.52&#10;  L 170.53 15.31&#10;  A 0.32 0.32 0.0 0 0 169.91 15.31&#10;  L 167.25 26.49"/>
<path stroke="#65ae91" d="&#10;  M 9.57 8.62&#10;  Q 8.31 8.48 7.51 8.76"/>
<path stroke="#65ae91" d="&#10;  M 5.90 8.74&#10;  Q 5.18 8.27 4.26 8.52&#10;  Q 3.76 8.64 3.84 9.19"/>
<path stroke="#65ae91" d="&#10;  M 2.04 8.78&#10;  Q 1.25 8.15 0.00 8.26"/>
</g>
<path fill="#2f867b" d="&#10;  M 0.00 0.00&#10;  L 33.25 0.00&#10;  Q 33.41 0.51 33.35 0.95&#10;  Q 33.28 1.48 32.75 1.48&#10;  L 0.00 1.53&#10;  L 0.00 0.00&#10;  Z"/>
<path fill="#2f867b" d="&#10;  M 0.00 5.00&#10;  L 0.00 3.36&#10;  L 32.84 3.34&#10;  Q 33.27 3.34 33.28 3.77&#10;  L 33.29 4.52&#10;  Q 33.30 5.03 32.79 5.03&#10;  L 0.00 5.00&#10;  Z"/>
<path fill="#264422" d="&#10;  M 53.64 10.76&#10;  Q 51.34 15.44 49.09 20.29&#10;  Q 48.00 22.64 48.02 24.62&#10;  Q 48.08 30.06 48.01 35.18&#10;  Q 48.00 35.68 47.51 35.79&#10;  Q 46.75 35.95 46.16 35.78&#10;  L 43.33 35.74&#10;  Q 42.78 35.74 42.78 35.19&#10;  Q 42.73 30.08 42.88 24.61&#10;  Q 42.94 22.42 42.01 20.48&#10;  Q 38.61 13.33 35.37 6.20&#10;  A 0.14 0.13 78.2 0 1 35.49 6.01&#10;  L 40.52 6.01&#10;  Q 40.83 6.01 40.97 6.29&#10;  L 45.14 15.00&#10;  Q 45.50 15.75 45.86 15.01&#10;  L 50.04 6.51&#10;  Q 50.26 6.06 50.75 6.07&#10;  L 55.26 6.11&#10;  A 0.38 0.38 0.0 0 1 55.60 6.66&#10;  L 53.64 10.76&#10;  Z"/>
<path fill="#264422" d="&#10;  M 86.14 12.57&#10;  Q 86.23 19.68 86.15 26.52&#10;  C 86.11 30.12 85.59 33.25 82.20 35.01&#10;  C 79.39 36.48 72.80 35.79 69.14 35.80&#10;  L 66.24 35.77&#10;  Q 65.65 35.76 65.65 35.18&#10;  L 65.65 6.69&#10;  Q 65.65 5.99 66.34 6.01&#10;  Q 71.44 6.16 77.14 5.99&#10;  C 81.94 5.85 85.15 7.68 86.14 12.57&#10;  Z&#10;  M 71.02 12.02&#10;  L 71.06 29.80&#10;  A 0.52 0.52 0.0 0 0 71.58 30.32&#10;  L 77.59 30.31&#10;  A 3.47 3.27 89.9 0 0 80.85 26.83&#10;  L 80.83 14.95&#10;  A 3.47 3.27 89.9 0 0 77.55 11.49&#10;  L 71.54 11.50&#10;  A 0.52 0.52 0.0 0 0 71.02 12.02&#10;  Z"/>
<path fill="#264422" d="&#10;  M 117.76 23.35&#10;  L 103.91 23.35&#10;  Q 103.03 23.34 103.03 24.23&#10;  L 103.04 30.01&#10;  Q 103.05 30.87 103.90 30.85&#10;  L 107.03 30.79&#10;  L 117.17 30.86&#10;  Q 117.70 30.87 117.72 31.40&#10;  L 117.84 35.26&#10;  Q 117.88 35.51 117.69 35.67&#10;  Q 117.56 35.77 117.32 35.77&#10;  Q 109.08 35.82 100.76 35.79&#10;  L 97.95 35.75&#10;  Q 97.44 35.74 97.44 35.23&#10;  L 97.44 6.68&#10;  Q 97.44 6.04 98.07 6.04&#10;  L 117.33 6.04&#10;  A 0.51 0.51 0.0 0 1 117.84 6.56&#10;  L 117.84 10.48&#10;  Q 117.84 11.06 117.26 11.06&#10;  L 103.50 11.04&#10;  Q 103.05 11.04 103.05 11.49&#10;  L 103.04 17.98&#10;  A 0.47 0.47 0.0 0 0 103.51 18.45&#10;  L 117.25 18.44&#10;  Q 117.77 18.44 117.77 18.97&#10;  L 117.76 23.35&#10;  Z"/>
<path fill="#264422" d="&#10;  M 150.05 13.75&#10;  Q 150.21 23.33 140.93 23.53&#10;  A 0.19 0.19 0.0 0 0 140.78 23.84&#10;  L 144.38 28.25&#10;  L 150.52 35.94&#10;  Q 147.88 35.51 144.95 36.05&#10;  L 138.35 28.50&#10;  L 135.20 24.57&#10;  Q 134.78 24.06 134.78 24.72&#10;  L 134.77 35.22&#10;  Q 134.77 35.72 134.26 35.73&#10;  L 132.53 35.79&#10;  L 129.74 35.75&#10;  Q 129.23 35.74 129.23 35.23&#10;  L 129.22 6.69&#10;  A 0.70 0.70 0.0 0 1 129.95 5.99&#10;  Q 134.77 6.18 139.76 5.98&#10;  C 145.28 5.75 149.33 7.95 150.05 13.75&#10;  Z&#10;  M 134.78 11.58&#10;  L 134.78 18.00&#10;  A 0.33 0.33 0.0 0 0 135.11 18.33&#10;  L 141.40 18.33&#10;  A 3.36 3.34 -90.0 0 0 144.74 14.97&#10;  L 144.74 14.61&#10;  A 3.36 3.34 90.0 0 0 141.40 11.25&#10;  L 135.11 11.25&#10;  A 0.33 0.33 0.0 0 0 134.78 11.58&#10;  Z"/>
<path fill="#264422" d="&#10;  M 174.27 11.22&#10;  L 180.09 35.16&#10;  Q 180.21 35.66 179.71 35.76&#10;  Q 178.80 35.96 177.79 35.81&#10;  Q 176.14 36.04 175.06 35.58&#10;  L 174.21 31.94&#10;  A 0.87 0.86 83.2 0 0 173.37 31.27&#10;  L 166.74 31.23&#10;  Q 166.15 31.23 166.05 31.82&#10;  Q 165.59 34.37 164.45 35.85&#10;  L 160.15 35.67&#10;  A 0.27 0.27 0.0 0 1 159.90 35.34&#10;  L 167.26 6.55&#10;  Q 167.40 6.02 167.95 6.02&#10;  L 172.36 6.05&#10;  Q 172.99 6.05 173.14 6.65&#10;  L 174.27 11.22&#10;  Z&#10;  M 167.25 26.49&#10;  A 0.32 0.32 0.0 0 0 167.56 26.89&#10;  L 172.76 26.91&#10;  A 0.32 0.32 0.0 0 0 173.07 26.52&#10;  L 170.53 15.31&#10;  A 0.32 0.32 0.0 0 0 169.91 15.31&#10;  L 167.25 26.49&#10;  Z"/>
<path fill="#2f867b" d="&#10;  M 0.00 6.79&#10;  L 32.79 6.80&#10;  A 0.50 0.49 -1.2 0 1 33.29 7.27&#10;  L 33.32 8.01&#10;  A 0.56 0.56 0.0 0 1 32.76 8.59&#10;  L 9.57 8.62&#10;  Q 8.31 8.48 7.51 8.76&#10;  Q 6.74 8.52 5.90 8.74&#10;  Q 5.18 8.27 4.26 8.52&#10;  Q 3.76 8.64 3.84 9.19&#10;  Q 3.90 8.16 2.04 8.78&#10;  Q 1.25 8.15 0.00 8.26&#10;  L 0.00 6.79&#10;  Z"/>
<path fill="#9ad6a6" d="&#10;  M 0.00 8.26&#10;  Q 1.25 8.15 2.04 8.78&#10;  L 2.05 40.00&#10;  L 0.00 40.00&#10;  L 0.00 8.26&#10;  Z"/>
<path fill="#9ad6a6" d="&#10;  M 5.90 8.74&#10;  L 5.90 40.00&#10;  L 3.85 40.00&#10;  L 3.84 9.19&#10;  Q 3.76 8.64 4.26 8.52&#10;  Q 5.18 8.27 5.90 8.74&#10;  Z"/>
<path fill="#9ad6a6" d="&#10;  M 9.57 8.62&#10;  L 9.56 40.00&#10;  L 7.50 40.00&#10;  L 7.51 8.76&#10;  Q 8.31 8.48 9.57 8.62&#10;  Z"/>
<path fill="#396b44" fill-opacity="0.094" d="&#10;  M 53.64 10.76&#10;  Q 55.48 11.59 57.71 10.89&#10;  A 0.61 0.61 0.0 0 1 58.45 11.71&#10;  Q 55.70 17.96 52.67 24.10&#10;  Q 51.64 26.18 51.73 28.78&#10;  Q 51.95 35.18 51.76 38.77&#10;  Q 51.70 39.86 49.35 40.00&#10;  L 47.55 40.00&#10;  Q 45.61 40.34 46.16 35.78&#10;  Q 46.75 35.95 47.51 35.79&#10;  Q 48.00 35.68 48.01 35.18&#10;  Q 48.08 30.06 48.02 24.62&#10;  Q 48.00 22.64 49.09 20.29&#10;  Q 51.34 15.44 53.64 10.76&#10;  Z"/>
<path fill="#1f2d1c" fill-opacity="0.996" d="&#10;  M 31.65 40.00&#10;  L 14.31 40.00&#10;  Q 11.95 38.64 11.95 36.26&#10;  Q 11.95 25.51 11.95 14.86&#10;  A 3.78 3.77 -89.9 0 1 15.72 11.09&#10;  L 25.23 11.09&#10;  A 3.28 3.26 68.3 0 1 27.61 12.12&#10;  L 33.28 18.20&#10;  A 4.03 4.01 23.6 0 1 34.36 20.94&#10;  Q 34.38 27.94 34.35 35.25&#10;  Q 34.33 38.95 31.65 40.00&#10;  Z&#10;  M 33.16 21.17&#10;  A 0.18 0.17 6.2 0 0 33.33 21.04&#10;  Q 33.63 19.94 32.90 19.10&#10;  Q 29.62 15.37 26.01 12.04&#10;  A 0.95 0.95 0.0 0 0 24.42 12.72&#10;  L 24.28 18.62&#10;  A 2.40 2.39 -89.1 0 0 26.64 21.07&#10;  L 33.16 21.17&#10;  Z&#10;  M 32.92 21.87&#10;  C 29.38 21.56 23.62 23.54 23.62 17.83&#10;  Q 23.63 15.25 23.71 12.68&#10;  Q 23.73 11.96 23.01 11.96&#10;  L 15.51 11.96&#10;  A 2.65 2.65 0.0 0 0 12.86 14.61&#10;  L 12.86 36.48&#10;  A 2.62 2.61 -0.0 0 0 15.48 39.09&#10;  L 30.84 39.09&#10;  A 2.68 2.68 0.0 0 0 33.52 36.41&#10;  L 33.49 22.49&#10;  Q 33.49 21.92 32.92 21.87&#10;  Z"/>
<path fill="#345a35" fill-opacity="0.133" d="&#10;  M 174.27 11.22&#10;  Q 175.53 10.98 175.37 12.63&#10;  Q 175.32 13.06 175.52 13.42&#10;  Q 175.62 13.61 175.84 13.57&#10;  Q 176.42 13.46 176.43 14.05&#10;  Q 176.45 15.26 177.22 16.11&#10;  Q 177.56 16.48 177.67 16.98&#10;  Q 178.37 20.30 179.62 23.50&#10;  Q 180.15 24.85 181.09 29.21&#10;  Q 181.37 30.46 181.84 31.61&#10;  C 182.30 32.75 182.11 33.93 182.48 35.08&#10;  Q 183.07 36.89 183.62 38.84&#10;  Q 183.89 39.81 181.68 40.00&#10;  L 179.66 40.00&#10;  Q 177.88 39.75 178.16 38.25&#10;  Q 178.38 37.02 177.79 35.81&#10;  Q 178.80 35.96 179.71 35.76&#10;  Q 180.21 35.66 180.09 35.16&#10;  L 174.27 11.22&#10;  Z"/>
<path fill="#345a35" fill-opacity="0.133" d="&#10;  M 86.14 12.57&#10;  Q 87.57 13.56 88.57 15.34&#10;  Q 89.33 16.70 89.40 18.81&#10;  Q 89.60 25.65 89.74 32.48&#10;  Q 89.86 38.63 83.69 40.00&#10;  L 69.78 40.00&#10;  Q 68.77 38.84 69.14 35.80&#10;  C 72.80 35.79 79.39 36.48 82.20 35.01&#10;  C 85.59 33.25 86.11 30.12 86.15 26.52&#10;  Q 86.23 19.68 86.14 12.57&#10;  Z"/>
<path fill="#396b44" fill-opacity="0.094" d="&#10;  M 150.05 13.75&#10;  L 151.59 14.37&#10;  Q 152.06 14.56 152.17 15.05&#10;  Q 152.28 15.56 152.67 15.89&#10;  Q 153.03 16.21 153.12 16.69&#10;  Q 155.07 26.90 144.38 28.25&#10;  L 140.78 23.84&#10;  A 0.19 0.19 0.0 0 1 140.93 23.53&#10;  Q 150.21 23.33 150.05 13.75&#10;  Z"/>
<path fill="#396b44" fill-opacity="0.094" d="&#10;  M 167.25 26.49&#10;  L 169.91 15.31&#10;  A 0.32 0.32 0.0 0 1 170.53 15.31&#10;  L 173.07 26.52&#10;  A 0.32 0.32 0.0 0 1 172.76 26.91&#10;  L 167.56 26.89&#10;  A 0.32 0.32 0.0 0 1 167.25 26.49&#10;  Z"/>
<path fill="#396b44" fill-opacity="0.094" d="&#10;  M 107.03 30.79&#10;  L 103.90 30.85&#10;  Q 103.05 30.87 103.04 30.01&#10;  L 103.03 24.23&#10;  Q 103.03 23.34 103.91 23.35&#10;  L 117.76 23.35&#10;  Q 118.65 22.93 119.44 23.17&#10;  Q 119.87 23.30 120.22 23.02&#10;  Q 120.50 22.80 120.83 22.89&#10;  Q 121.37 23.03 121.37 23.59&#10;  L 121.40 26.80&#10;  A 0.92 0.92 0.0 0 1 120.48 27.72&#10;  Q 113.80 27.70 107.99 27.73&#10;  Q 105.64 27.75 107.03 30.79&#10;  Z"/>
<path fill="#345a35" fill-opacity="0.133" d="&#10;  M 138.35 28.50&#10;  L 138.26 39.07&#10;  Q 138.25 39.59 137.74 39.67&#10;  L 135.74 40.00&#10;  L 134.64 40.00&#10;  Q 133.40 40.01 132.75 39.45&#10;  Q 132.36 39.11 132.52 38.62&#10;  Q 132.97 37.19 132.53 35.79&#10;  L 134.26 35.73&#10;  Q 134.77 35.72 134.77 35.22&#10;  L 134.78 24.72&#10;  Q 134.78 24.06 135.20 24.57&#10;  L 138.35 28.50&#10;  Z"/>
<rect fill="#1f2d1c" fill-opacity="0.996" x="-6.22" y="-0.44" transform="translate(23.01,25.66) rotate(0.1)" width="12.44" height="0.88" rx="0.43"/>
<rect fill="#1f2d1c" fill-opacity="0.996" x="-6.23" y="-0.44" transform="translate(22.91,30.60) rotate(-0.1)" width="12.46" height="0.88" rx="0.43"/>
<path fill="#345a35" fill-opacity="0.133" d="&#10;  M 175.06 35.58&#10;  C 173.56 35.63 171.11 35.32 169.91 36.17&#10;  Q 169.47 36.49 169.33 37.01&#10;  L 168.83 38.94&#10;  Q 168.69 39.47 168.16 39.61&#10;  L 166.73 40.00&#10;  L 164.90 40.00&#10;  Q 164.16 39.91 163.67 39.61&#10;  Q 163.24 39.35 163.41 38.87&#10;  L 164.45 35.85&#10;  Q 165.59 34.37 166.05 31.82&#10;  Q 166.15 31.23 166.74 31.23&#10;  L 173.37 31.27&#10;  A 0.87 0.86 83.2 0 1 174.21 31.94&#10;  L 175.06 35.58&#10;  Z"/>
<rect fill="#1f2d1c" fill-opacity="0.996" x="16.77" y="34.33" width="12.52" height="0.84" rx="0.40"/>
<path fill="#345a35" fill-opacity="0.133" d="&#10;  M 117.84 35.26&#10;  L 120.82 35.27&#10;  A 0.54 0.53 0.0 0 1 121.35 35.79&#10;  L 121.42 39.20&#10;  Q 121.43 39.56 121.07 39.63&#10;  L 118.99 40.00&#10;  L 101.90 40.00&#10;  Q 100.30 39.51 100.77 38.24&#10;  Q 101.22 37.01 100.76 35.79&#10;  Q 109.08 35.82 117.32 35.77&#10;  Q 117.56 35.77 117.69 35.67&#10;  Q 117.88 35.51 117.84 35.26&#10;  Z"/>
<path fill="#345a35" fill-opacity="0.133" d="&#10;  M 150.52 35.94&#10;  L 153.28 39.12&#10;  Q 153.64 39.53 153.10 39.63&#10;  L 150.98 40.00&#10;  L 148.82 40.00&#10;  Q 146.60 39.89 144.95 36.05&#10;  Q 147.88 35.51 150.52 35.94&#10;  Z"/>
</svg>