<?xml version="1.0" standalone="no"?><!DOCTYPE svg PUBLIC "-//W3C//DTD SVG 1.1//EN" "http://www.w3.org/Graphics/SVG/1.1/DTD/svg11.dtd"><svg t="1717334792738" class="icon" viewBox="0 0 1024 1024" version="1.1" xmlns="http://www.w3.org/2000/svg" p-id="1014" xmlns:xlink="http://www.w3.org/1999/xlink" width="200" height="200"><path d="M512 80c58.36 0 114.92 11.41 168.13 33.92 51.43 21.75 97.64 52.91 137.34 92.61s70.86 85.91 92.61 137.34C932.59 397.08 944 453.65 944 512c0 58.36-11.41 114.92-33.92 168.13-21.75 51.43-52.91 97.64-92.61 137.34s-85.91 70.86-137.34 92.61C626.92 932.59 570.35 944 512 944c-58.35 0-114.92-11.41-168.13-33.92-51.43-21.75-97.64-52.91-137.34-92.61s-70.86-85.91-92.61-137.34C91.41 626.92 80 570.35 80 512c0-58.35 11.41-114.92 33.92-168.13 21.75-51.43 52.91-97.64 92.61-137.34s85.91-70.86 137.34-92.61C397.08 91.41 453.65 80 512 80m0-80C229.23 0 0 229.23 0 512s229.23 512 512 512 512-229.23 512-512S794.77 0 512 0z" fill="#d81e06" p-id="1015"></path></svg>